<svg xmlns="http://www.w3.org/2000/svg" viewBox="0 0 700 150" fill="none">
  <!-- Shopigent Returns icon (scaled down) -->
  <g transform="translate(10,10) scale(0.065)">
    <path fill="#269982" d="M963.1 215.5a80 80 0 0 1-12.9 63.7 78 78 0 0 1-48.7 31.1q-22.8 4.3-44-4-20.5-8-34.8-27-20-28.6-12.8-63.8c13.6-56 78.8-79 124.4-44.6q21.9 16.5 28.8 44.6"/>
    <path fill="#452b60" d="M809.9 215.5q-7.1 35.2 12.8 63.7a271 271 0 0 0-64.2 73A600 600 0 0 0 699 481.4a.4.3-74 0 0 .3.4c63.9 17 126 39.6 186.8 66.7a2 2 0 0 0 1.4 0q91-40.5 186.3-66.3a.3.3 0 0 0 .2-.4q-13.6-40.2-31.9-78.7a425 425 0 0 0-53-86q-17.6-21.6-39-37.9a80 80 0 0 0 13-63.7 673 673 0 0 1 336.4 136.9q79.8 61.8 138.4 144.5a3.7 3.6 3.4 0 0 .6.6l15.7 13.5q-34.5-.2-58.5 23.8a219 219 0 0 0-87.6-25 430 430 0 0 0-72.6-.6q-45.7 3.4-91.7 12.8a1 1 76.9 0 0-.4.8q25.1 95 35.6 194.2a2 2-75.2 0 0 .6 1.2 1277 1277 0 0 1 150.5 128 .4.4 42.8 0 0 .7 0 606 606 0 0 0 84.8-121.3q14.3-27.8 22.8-58 32 5.2 58.5-12.7a331 331 0 0 1-34.9 99.2q-25.8 48.8-60.4 92.5-15.6 19.6-33.4 40.1v.8a678 678 0 0 1 83 111.4c20.5 35 37 73 44.8 112.5q1 5.2 2 11.7a.1.1 0 0 0 .2 0q12.3-32 19.8-59.3 40.5-147 13-297.3-10.4-57.5-31.9-113.2 8.8-6.7 15-14.8 19.1 47.8 30 95.1 32.9 144.1 3.8 288.6-15 75.1-48.5 148.1l-.6 2q-8.4 64.1-59.7 102.8l-1 1q-27.4 38.4-55.6 68.7-108.4 116.7-255.6 173.2-78.3 30-163.8 39.8 1.8-8.6 1.5-19.3-.4-24.8-14.7-44.3a262 262 0 0 0 61.9-69.1 600 600 0 0 0 62-133.2.3.3 0 0 0-.2-.4 1280 1280 0 0 1-187.3-66.8h-.8q-91.2 40.4-186.4 66.3a.3.3 0 0 0-.2.5q11 33.1 25.3 65a434 434 0 0 0 62.9 103.8q16 19 35.7 34-20.1 28.4-13.1 63.5a676 676 0 0 1-475.1-281.8 3 2.9 1.7 0 0-.7-.6q-51.5-39-60-102.6a9 8.8 30.3 0 0-.6-2.4l-6.3-14.6a675 675 0 0 1-55.5-282.8q2.8-140.5 62.2-270a5.9 5.6 62.1 0 0 .5-1.6q8.1-64.5 60-103.2a3.2 2.9-86.8 0 0 .7-.6l20-26.7q-5.1 38.3 20 66.2-35.8 21.8-44.5 60.6a141 141 0 0 0 1.6 60.1 330 330 0 0 0 43.6 100.5q29.5 47.2 66.5 88.6a.3.3 46.7 0 0 .5 0c46.4-46.7 97.4-89.3 150.6-128a2 2 75.2 0 0 .7-1.2q10.2-98.8 35.5-194.3l-.3-.6q-44.8-9.2-87-12.6-15.7-1.3-35-1.5c3.7-11.9 4.1-21 3.4-33.9q-.4-9-5.4-21.1 70.9 1.2 139.7 16.4a1 1 0 0 0 1-.5q11.5-35.6 28-73a501 501 0 0 1 66.8-112.2q20.5-25.5 45-45a.2.2 0 0 0-.2-.4q-146 23-268 105.8-40.4 27.4-76.2 60.9-15.4-1.5-30.4 2.4 2.5-2.7 7.6-7.6Q531 292 678.2 243.9q63.4-20.7 131.7-28.4M987 238.7a313 313 0 0 1 67 74.5 617 617 0 0 1 63.9 129.4q3.6 9.8 9.4 26.6l.7.4c69.3-14.6 142.8-22.8 212.6-10.7q28.8 5 55.5 15.4a.2.2 0 0 0 .2-.3 656 656 0 0 0-409.1-235.7.2.2 68.3 0 0-.2.4M735.5 625.4q37.6-21.8 83.7-45v-.4q-68.3-27.5-136-45.6l-.2.1-.2.2q-18.1 67.6-28.5 140.4a.3.3 0 0 0 .4.3q43.1-28.3 80.8-50m302 0q37.6 21.7 80.7 50a.3.3 0 0 0 .5-.3q-10.4-72.8-28.5-140.4l-.2-.2h-.2q-67.7 18-136 45.4a.3.3 0 0 0 0 .6q46.1 23.1 83.7 44.8M639.8 886.2q0 70.7 6 138.1a1 1 0 0 0 .5.9q113.4 80 240 138.3h.4q126.6-58.2 240-138.3l.4-.8q6.1-67.5 6.1-138.2t-6-138.1a1 1 0 0 0-.5-.9q-113.4-80-240-138.2h-.4q-126.6 58.2-240 138.2l-.4.8q-6.1 67.5-6.1 138.2m-392.3 147.3q-4.2 11-5 21.4-2.4 33.2 18.6 58.1a78 78 0 0 0 49.9 27c5 .6 11.6.2 17.3.3q-1.3 16.7 1.5 31.7c12.8 69 89 88.4 147.6 91.7q35.3 2 68.2-.9 42-3.7 84-12.4v-.2q-25.2-95.5-35.5-194.2a2 2 15.7 0 0-.7-1.2Q513 996.3 442.8 926.6h-.4q-34.8 38.8-63.3 82.7l-4.7-4.7q-18.6-17.2-44-20.6a718 718 0 0 1 74.2-97.3v-.8q-41-45.7-72.8-95.8c-27.2-43-49-90.7-56.7-141a.1.1 0 0 0-.2 0q-55.5 145-41 300.2 3.9 42.3 13.6 84.3m940.7-147.1q0 43.4-3 94.8a.3.3 0 0 0 .5.2q57.8-45.3 107.2-94.8v-.4q-49.4-49.5-107.2-94.8a.3.3 0 0 0-.5.2q3 51.4 3 94.8m-603.4 0q0-43.4 3-94.8a.3.3 0 0 0-.4-.3q-57.9 45.3-107.3 94.8v.5q49.4 49.5 107.2 94.8a.3.3 0 0 0 .5-.2q-3-51.4-3-94.8m613.6 373.1q-8.9 28 2.2 55.6-36.6-4.4-72.6-11.9a.6.6 0 0 0-.8.5 662 662 0 0 1-73 155.3 314 314 0 0 1-67.3 74.9.2.2 21.2 0 0 .2.3q131.3-20.4 244.2-90.2 94.3-58.3 165-145.6l-.2-.3q-24 9.4-49.7 14.4 4.5-12.1 4.8-20.7.3-11.1-.2-16.7-.7-8.4-4.6-19c29.7-6.5 61.1-21 79.9-45.4 37-48.2 12.6-119.4-12.2-166.6a593 593 0 0 0-83.5-117.5h-.4c-46.7 46.7-96.9 89-150.4 128a2.2 2.1-15.2 0 0-.8 1.5q-10.4 98.6-35.6 194l.1.2q27.3 5.6 55 9.2m-463-112.3q-37.6-21.7-80.6-50a.3.3 0 0 0-.5.3q10.4 72.7 28.6 140.3h.1l.3.2Q751 1220 819 1192.6a.3.3 0 0 0 0-.5q-46-23.1-83.6-44.8m302.2 0q-37.6 21.6-83.7 44.7a.3.3 0 0 0 0 .5q68.1 27.5 135.8 45.7l.2-.1.2-.2q18.2-67.5 28.6-140.3a.3.3 0 0 0-.4-.3q-43.1 28.3-80.7 50M786 1534a313 313 0 0 1-67-74.6 618 618 0 0 1-64-129.5l-9.4-26.7-.7-.4c-69.3 14.6-142.9 22.8-212.8 10.7q-28.8-5-55.5-15.4a.2.2 0 0 0-.2.3 657 657 0 0 0 409.5 235.9z"/>
    <path fill="#269982" d="M441.3 405a79 79 0 0 1 64 48q4.9 12.1 5.3 21.1c.7 12.8.3 22-3.4 34q-11.2 31.4-40.9 46-11.7 5.7-24.8 6.8-9.2.9-18 0a78 78 0 0 1-48.6-24.5q-25-28-20-66.2l1.9-7.9q10.4-35.8 44-51.2 2.1-1 10-3.7 15.1-4 30.5-2.4m1013 106a78.7 78.7 0 0 1 76.3 83.3q-1.2 23.6-16.3 43.5-6.3 8.1-15 14.8l-2.3 1.6q-26.5 18-58.5 12.8a78.6 78.6 0 0 1-42.7-132.2q24-24 58.5-23.8"/>
    <path fill="#fff" d="M1104.6 886.3a218 218 0 0 1-218.1 218 218 218 0 0 1-218.1-218 218 218 0 0 1 218.1-218.1 218 218 0 0 1 218.1 218m-312.4 68.5-26.7 50.3.2.8q12.8 9.4 28.4 16.2 44.6 19.6 92.4 20.6c33 .7 69.9-6.3 95.1-29.3q19.3-17.6 24.4-43.3 1.2-5.8 1.2-14.7.1-11.4-.2-14.9-2.2-21.1-14-37.7a97 97 0 0 0-36.6-28.7q-18.5-9.1-39.7-14.8-24.9-6.7-37.3-10.2-16.9-4.6-27.8-10.9-11.1-6.3-13.2-18c-3.7-20.8 14.3-29.8 31.6-31.8q16.6-2 33.2.7 37.4 5.8 69.7 24.5h.4l26-49.2-.1-.5a206 206 0 0 0-133-32.8c-35.8 3-74.3 19-89.3 54.3a89 89 0 0 0-5.2 46.1c3.8 29.3 21.4 49.8 47.2 62.9q21.6 11 47 17.5c19.7 5.1 33 8.3 49.6 15q10.4 4.2 16.6 9.7a25.4 25.4 0 0 1 3 33.3c-7.8 10.6-24.4 13.7-36.5 14.2a192 192 0 0 1-94.8-23.4c-3.7-2-7.6-4.5-10.6-6.2a1 1 0 0 0-1 .3"/>
  </g>
  <!-- Text: Shopigent (dark purple) -->
  <text x="120" y="62" font-family="'Inter',Arial,sans-serif" font-size="34" font-weight="800" fill="#452b60" letter-spacing="-0.5">Shopigent</text>
  <!-- Text: Returns (green) -->
  <text x="120" y="95" font-family="'Inter',Arial,sans-serif" font-size="24" font-weight="600" fill="#269982" letter-spacing="-0.3">Returns</text>
</svg>